<svg width="112" height="19" viewBox="0 0 112 19" fill="none" xmlns="http://www.w3.org/2000/svg">
<path fill-rule="evenodd" clip-rule="evenodd" d="M8.28374 0V2.2377C8.28374 4.44098 8.3181 4.47541 9.58933 5.33607C10.2765 5.78361 11.0323 6.05902 11.2041 5.95574C11.3759 5.85246 11.96 5.43934 12.5097 5.09508C13.3343 4.54426 13.4374 4.23443 13.5404 2.30656C13.6092 0.206558 13.6092 0.172131 14.6399 0.0688525C15.224 0.0344262 16.1516 0.27541 16.8044 0.688525C17.3885 1.06721 18.2818 1.89344 18.7628 2.51311C19.2782 3.13279 19.6561 4.13115 19.6561 4.81967C19.7248 5.81803 19.4843 6.23115 18.3505 7.22951C17.5946 7.88361 15.6019 9.46721 10.8606 13.0131L6.56587 9.67377C2.68346 6.64426 2.27117 6.23115 2.1681 5.16393C2.09939 4.26885 2.30553 3.64918 2.99268 2.7541C3.50805 2.1 4.40134 1.20492 4.95106 0.791803C5.5695 0.344262 6.49715 0 8.28374 0ZM105.859 5.71475C106.993 5.81803 108.23 6.19672 108.951 6.67869C109.604 7.0918 110.532 8.05574 110.978 8.81312C111.459 9.53607 111.906 10.7754 111.975 11.5328C112.078 12.2902 111.94 13.5295 111.666 14.2869C111.425 15.0443 110.807 16.1115 110.326 16.6623C109.845 17.2131 108.848 17.9705 108.092 18.2803C107.337 18.6246 105.962 18.9344 105 18.9344C103.901 18.9344 102.733 18.659 101.736 18.1426C100.912 17.7295 99.7779 16.7656 99.2625 16.0082C98.7472 15.2508 98.1974 14.0803 98.0944 13.4262C97.9913 12.7721 98.06 11.5672 98.2662 10.741C98.5067 9.8459 99.1938 8.70984 100.121 7.7459C100.98 6.81639 102.045 6.05902 102.767 5.85246C103.42 5.68033 104.828 5.61148 105.859 5.71475ZM102.492 10.8787C102.217 11.4639 102.114 12.359 102.217 12.9787C102.355 13.6672 102.801 14.4246 103.385 14.8377C104.073 15.3541 104.588 15.4918 105.344 15.3197C105.894 15.2164 106.718 14.7689 107.165 14.3557C107.646 13.8738 107.921 13.1852 107.921 12.4623C107.921 11.877 107.783 11.0508 107.577 10.6721C107.371 10.2934 106.684 9.74262 106.031 9.46721C105.938 9.42798 105.846 9.38945 105.758 9.35221C105.105 9.07861 104.43 9.11585 103.798 9.43279V9.43279C103.317 9.67377 102.733 10.3279 102.492 10.8787ZM2.75218 9.29508C3.23318 9.29508 3.98905 9.60492 4.4357 9.98361C4.84799 10.3623 5.29464 11.0164 5.39771 11.4295C5.53514 11.8771 6.35972 12.9098 7.28737 13.7705C8.48989 14.9066 8.97089 15.5951 8.97089 16.2492C8.97089 16.8 8.62732 17.5574 8.11196 18.0738C7.49352 18.7279 6.90944 18.9344 5.87872 18.9344C4.6762 18.9344 4.29827 18.7279 2.78654 17.2131C1.85888 16.2492 0.828157 14.941 0.553296 14.2869C0.278436 13.6328 0.0379331 12.5656 0.00357559 11.9115C-0.030782 10.982 0.175364 10.5689 0.93123 10.018C1.44659 9.60492 2.27117 9.29508 2.75218 9.29508ZM19.0033 9.29508C19.5874 9.29508 20.3089 9.63934 20.8242 10.1557C21.374 10.7066 21.6832 11.3951 21.6832 12.0492C21.6832 12.6 21.4083 13.6672 21.0304 14.3557C20.6868 15.0787 19.9653 16.1803 19.4156 16.8344C18.8659 17.4541 17.9726 18.2115 17.3885 18.5213C16.8388 18.7967 15.9111 19.0033 15.327 19.0033C14.7773 18.9689 13.9527 18.5902 13.5061 18.177C13.0251 17.6951 12.7502 16.9721 12.7502 16.3525C12.7502 15.7672 12.9564 15.0787 13.1969 14.8033C13.4374 14.4934 14.1932 13.8049 14.9148 13.2541C15.6363 12.6689 16.3234 11.9115 16.4265 11.5328C16.5296 11.1541 16.9418 10.5 17.3198 10.0525C17.7321 9.60492 18.4192 9.29508 19.0033 9.29508ZM34.6703 5.54262C35.0826 5.5082 35.9759 5.74918 36.6287 6.02459C37.2815 6.3 37.9687 6.81639 38.1404 7.12623C38.4153 7.67705 38.5527 7.67705 39.5147 6.78197C40.0988 6.26557 41.0952 5.74918 41.7136 5.6459C42.2977 5.54262 43.4315 5.68033 44.153 5.92131C44.9089 6.1623 45.8365 6.81639 46.2145 7.33279C46.8673 8.22787 46.936 8.84754 47.1078 18.5902L43.1567 18.418L42.9849 14.1148C42.8131 9.94918 42.7787 9.81148 41.9198 9.29508C41.0952 8.81311 40.9234 8.84754 40.2019 9.32951C39.5147 9.77705 39.343 10.2934 39.1368 12.2557C38.965 13.5639 38.862 15.5262 38.862 18.5902H35.0826L35.0139 14.2525C34.9108 10.3967 34.8421 9.88033 34.2237 9.43279C33.8458 9.15738 33.296 8.95082 33.0212 8.95082C32.7463 8.95082 32.231 9.15738 31.9217 9.39836C31.4064 9.74262 31.2689 10.6033 30.7879 18.5902H27.1804V5.85246H29.0701C30.7879 5.85246 30.9597 5.92131 30.9597 6.60984C30.9254 7.36721 30.9597 7.36721 31.5438 6.81639C31.8874 6.50656 32.5402 6.09344 33.0212 5.88689C33.5022 5.71475 34.2237 5.54262 34.6703 5.54262ZM49.1692 5.5082H51.0589C52.8798 5.5082 52.9486 5.54262 52.9486 6.43771C52.9142 7.33279 52.9486 7.36721 53.5326 6.85082C53.8762 6.54098 54.529 6.19672 55.01 6.09344C55.491 5.99016 56.3843 6.05902 57.0027 6.23115C57.5868 6.40328 58.4114 6.9541 58.7893 7.47049C59.4421 8.33115 59.5108 8.95082 59.4765 18.5902H56.0407V14.8033C56.0407 11.4639 55.972 10.9475 55.3536 10.3279C54.9756 9.94918 54.4603 9.63934 54.2541 9.63934C54.0136 9.63934 53.5326 9.91475 53.1891 10.259C52.6737 10.741 52.5706 11.4295 52.605 18.5902H49.1692V5.5082ZM67.7223 5.54262C67.9972 5.54262 68.8561 5.68033 69.612 5.88689C70.3678 6.09344 71.3986 6.57541 71.9483 6.91967C72.4636 7.29836 73.1508 8.15902 73.5287 8.84754C73.8723 9.57049 74.2502 10.8787 74.5938 13.4262H69.9555C66.0731 13.4262 65.3173 13.4951 65.3173 13.9426C65.3173 14.218 65.7296 14.7689 66.2793 15.1475C66.7946 15.5607 67.6879 15.8705 68.2377 15.8705C68.8217 15.8705 69.6807 15.5607 70.2304 15.1475C70.7458 14.7689 71.2268 14.459 71.3298 14.459C71.4329 14.459 72.0514 14.8033 73.941 16.0082L73.1508 16.8344C72.7041 17.282 71.7421 17.9361 70.9863 18.2803C70.2304 18.6246 68.8561 18.9344 67.8941 18.9344C66.9664 18.9344 65.5578 18.659 64.8019 18.3148C64.046 17.9705 62.981 17.0754 62.3969 16.3525C61.6067 15.3197 61.3318 14.5967 61.2287 13.1164C61.16 12.0492 61.2631 10.6377 61.5036 9.98361C61.7097 9.32951 62.4656 8.19344 63.1527 7.50492C63.943 6.74754 65.0081 6.09344 65.8326 5.88689C66.5885 5.71475 67.4474 5.57705 67.7223 5.54262ZM65.386 10.2246C64.9737 11.0164 64.9737 11.0164 67.5505 11.0164C69.612 11.0164 70.1273 10.9131 70.1273 10.5C70.1273 10.2246 69.8181 9.67377 69.4402 9.29508C69.0622 8.91639 68.3407 8.60656 67.8254 8.60656C67.2757 8.60656 66.6229 8.81311 66.3136 9.0541C66.0044 9.29508 65.5921 9.81148 65.386 10.2246ZM84.7293 5.71475C85.5539 5.81803 86.4472 6.23115 87.8215 7.57377L88.5086 6.88525C88.8865 6.47213 89.7111 6.02459 90.3296 5.81803C90.948 5.61148 92.0474 5.54262 92.7346 5.6459C93.4217 5.78361 94.3494 6.1623 94.796 6.54098C95.2083 6.91967 95.7237 7.6082 95.8955 8.09016C96.1016 8.57213 96.2391 11.1197 96.2391 18.5902L92.2879 18.418L92.2192 14.2869C92.1505 10.8787 92.0131 10.0525 91.5321 9.53607C91.0511 9.08853 90.6731 8.98525 89.9173 9.1918C89.3676 9.36394 88.7835 9.81148 88.646 10.2246C88.4743 10.6721 88.3368 12.7033 88.3368 18.5902H84.2139V14.459C84.2139 10.7754 84.1452 10.259 83.5268 9.63934C83.1488 9.26066 82.6335 8.95082 82.4273 8.95082C82.1868 8.91639 81.6027 9.1918 81.1561 9.53607C80.4346 10.0869 80.3315 10.4656 80.2628 13.082C80.2284 14.7 80.1597 16.5934 80.091 18.5902H76.3117V5.85246H78.2013C79.9192 5.85246 80.091 5.92131 80.091 6.60984C80.0567 7.36721 80.091 7.36721 80.6751 6.81639C81.0187 6.47213 81.7745 6.05902 82.3243 5.88689C82.9083 5.68033 83.9734 5.61148 84.7293 5.71475Z" fill="url(#paint0_linear_655_2981)"/>
<defs>
<linearGradient id="paint0_linear_655_2981" x1="-3.05327e-08" y1="19" x2="112.009" y2="9.50164" gradientUnits="userSpaceOnUse">
<stop offset="0.235626" stop-color="#7262F3"/>
<stop offset="0.759699" stop-color="#855EF5"/>
</linearGradient>
</defs>
</svg>
