<svg width="120" height="106" viewBox="0 0 120 106" fill="none" xmlns="http://www.w3.org/2000/svg">
<path fill-rule="evenodd" clip-rule="evenodd" d="M45.8442 0V12.4819C45.8442 24.7717 46.0344 24.9638 53.0697 29.7645C56.8725 32.2609 61.0557 33.7971 62.0064 33.221C62.9571 32.6449 66.1895 30.3406 69.2318 28.4203C73.7953 25.3478 74.3657 23.6196 74.9361 12.8659C75.3164 1.15217 75.3164 0.960145 81.0207 0.384058C84.2531 0.192029 89.387 1.53623 92.9997 3.84058C96.2321 5.9529 101.176 10.5616 103.838 14.0181C106.69 17.4746 108.782 23.0435 108.782 26.8841C109.162 32.4529 107.831 34.7572 101.556 40.3261C97.373 43.9746 86.3447 52.808 60.105 72.587L36.3371 53.9601C14.8509 37.0616 12.5692 34.7572 11.9988 28.8043C11.6185 23.8116 12.7594 20.3551 16.5622 15.3623C19.4144 11.7138 24.3581 6.72101 27.4004 4.41667C30.8229 1.92029 35.9568 0 45.8442 0ZM15.2312 51.8478C17.8932 51.8478 22.0764 53.5761 24.5482 55.6884C26.8299 57.8007 29.3018 61.4493 29.8722 63.7536C30.6328 66.25 35.1962 72.0109 40.3301 76.8116C46.9851 83.1486 49.6471 86.9891 49.6471 90.6377C49.6471 93.7102 47.7457 97.9348 44.8935 100.815C41.471 104.464 38.2385 105.616 32.5342 105.616C25.8792 105.616 23.7877 104.464 15.4214 96.0145C10.2875 90.6377 4.58322 83.3406 3.06208 79.692C1.54093 76.0435 0.209931 70.0906 0.0197882 66.442C-0.170355 61.2572 0.970504 58.9529 5.15365 55.8804C8.00579 53.5761 12.5692 51.8478 15.2312 51.8478ZM105.169 51.8478C108.401 51.8478 112.394 53.7681 115.246 56.6485C118.289 59.721 120 63.5616 120 67.2101C120 70.2826 118.479 76.2355 116.387 80.0761C114.486 84.1087 110.493 90.2536 107.451 93.9022C104.408 97.3587 99.4646 101.583 96.2321 103.312C93.1898 104.848 88.056 106 84.8236 106C81.7813 105.808 77.2178 103.696 74.746 101.391C72.084 98.7029 70.5628 94.6703 70.5628 91.2138C70.5628 87.9493 71.7037 84.1087 73.0347 82.5725C74.3657 80.8442 78.5488 77.0036 82.5418 73.9312C86.5348 70.6667 90.3377 66.442 90.9081 64.3297C91.4786 62.2174 93.7603 58.5688 95.8519 56.0725C98.1336 53.5761 101.936 51.8478 105.169 51.8478Z" fill="#555555"/>
</svg>
