<svg width="250" height="250" viewBox="0 0 250 250" fill="none" xmlns="http://www.w3.org/2000/svg">
<rect width="250" height="250" rx="43" fill="#DFDFDF"/>
<path fill-rule="evenodd" clip-rule="evenodd" d="M108.013 61V76.0725C108.013 90.913 108.241 91.1449 116.684 96.942C121.247 99.9565 126.267 101.812 127.408 101.116C128.549 100.42 132.427 97.6377 136.078 95.3188C141.554 91.6087 142.239 89.5217 142.923 76.5362C143.38 62.3913 143.38 62.1594 150.225 61.4638C154.104 61.2319 160.264 62.8551 164.6 65.6377C168.479 68.1884 174.411 73.7536 177.605 77.9275C181.028 82.1015 183.538 88.8261 183.538 93.4638C183.994 100.188 182.397 102.971 174.867 109.696C169.848 114.101 156.614 124.768 125.126 148.652L96.6045 126.159C70.8211 105.754 68.0831 102.971 67.3986 95.7826C66.9422 89.7536 68.3112 85.5797 72.8747 79.5507C76.2972 75.1449 82.2297 69.1159 85.8804 66.3333C89.9875 63.3188 96.1482 61 108.013 61ZM71.2775 123.609C74.4719 123.609 79.4916 125.696 82.4579 128.246C85.1959 130.797 88.1622 135.203 88.8467 137.986C89.7594 141 95.2355 147.957 101.396 153.754C109.382 161.406 112.577 166.043 112.577 170.449C112.577 174.159 110.295 179.261 106.872 182.739C102.765 187.145 98.8862 188.536 92.0411 188.536C84.0551 188.536 81.5452 187.145 71.5056 176.942C65.345 170.449 58.4999 161.638 56.6745 157.232C54.8491 152.826 53.2519 145.638 53.0237 141.232C52.7956 134.971 54.1646 132.188 59.1844 128.478C62.607 125.696 68.0831 123.609 71.2775 123.609ZM179.203 123.609C183.082 123.609 187.873 125.928 191.296 129.406C194.946 133.116 197 137.754 197 142.159C197 145.87 195.175 153.058 192.665 157.696C190.383 162.565 185.591 169.986 181.941 174.391C178.29 178.565 172.357 183.667 168.479 185.754C164.828 187.609 158.667 189 154.788 189C151.138 188.768 145.661 186.217 142.695 183.435C139.501 180.188 137.675 175.319 137.675 171.145C137.675 167.203 139.044 162.565 140.642 160.71C142.239 158.623 147.259 153.986 152.05 150.275C156.842 146.333 161.405 141.232 162.09 138.681C162.774 136.13 165.512 131.725 168.022 128.71C170.76 125.696 175.324 123.609 179.203 123.609Z" fill="#555555"/>
</svg>
