<svg width="136" height="26" viewBox="0 0 136 26" fill="none" xmlns="http://www.w3.org/2000/svg">
<g clip-path="url(#clip0_663_3268)">
<rect width="136" height="26" rx="5" fill="#D2D2D2"/>
<g clip-path="url(#clip1_663_3268)">
<g clip-path="url(#clip2_663_3268)">
<path d="M7.51208 18.9585H20.2621" stroke="#8A8A8A" stroke-width="1.5" stroke-linecap="round" stroke-linejoin="round"/>
<path d="M8.92877 10.4583C8.92877 10.2705 9.0034 10.0903 9.13624 9.95747C9.26908 9.82463 9.44924 9.75 9.63711 9.75H18.1371C18.325 9.75 18.5051 9.82463 18.638 9.95747C18.7708 10.0903 18.8454 10.2705 18.8454 10.4583V16.125C18.8454 16.3129 18.7708 16.493 18.638 16.6259C18.5051 16.7587 18.325 16.8333 18.1371 16.8333H9.63711C9.44924 16.8333 9.26908 16.7587 9.13624 16.6259C9.0034 16.493 8.92877 16.3129 8.92877 16.125V10.4583Z" stroke="#8A8A8A" stroke-width="1.5" stroke-linecap="round" stroke-linejoin="round"/>
</g>
<path d="M30.277 18.5L27.6548 9.04545H29.1552L30.9972 16.3672H31.0849L33.0007 9.04545H34.4872L36.4031 16.3718H36.4908L38.3281 9.04545H39.8331L37.2063 18.5H35.7706L33.7809 11.4183H33.707L31.7173 18.5H30.277ZM41.023 18.5V11.4091H42.4033V18.5H41.023ZM41.7201 10.315C41.48 10.315 41.2738 10.235 41.1015 10.0749C40.9322 9.91181 40.8476 9.71792 40.8476 9.49325C40.8476 9.26551 40.9322 9.07161 41.1015 8.91158C41.2738 8.74846 41.48 8.6669 41.7201 8.6669C41.9601 8.6669 42.1648 8.74846 42.3341 8.91158C42.5064 9.07161 42.5926 9.26551 42.5926 9.49325C42.5926 9.71792 42.5064 9.91181 42.3341 10.0749C42.1648 10.235 41.9601 10.315 41.7201 10.315ZM46.9148 18.6385C46.3423 18.6385 45.8315 18.4923 45.3821 18.1999C44.9359 17.9045 44.585 17.4844 44.3296 16.9396C44.0772 16.3918 43.951 15.7347 43.951 14.9684C43.951 14.2021 44.0787 13.5465 44.3342 13.0018C44.5927 12.457 44.9466 12.04 45.396 11.7507C45.8453 11.4614 46.3547 11.3168 46.924 11.3168C47.3641 11.3168 47.7181 11.3906 47.9858 11.5384C48.2566 11.683 48.4659 11.8523 48.6136 12.0462C48.7645 12.2401 48.8814 12.4109 48.9645 12.5586H49.0476V9.04545H50.4279V18.5H49.0799V17.3967H48.9645C48.8814 17.5475 48.7614 17.7198 48.6044 17.9137C48.4505 18.1076 48.2382 18.2769 47.9673 18.4215C47.6965 18.5662 47.3457 18.6385 46.9148 18.6385ZM47.2195 17.4613C47.6165 17.4613 47.952 17.3567 48.2259 17.1474C48.5029 16.935 48.7121 16.6411 48.8537 16.2656C48.9984 15.8902 49.0707 15.4531 49.0707 14.9545C49.0707 14.4621 48.9999 14.0312 48.8583 13.6619C48.7167 13.2926 48.509 13.0049 48.2351 12.7987C47.9612 12.5924 47.6226 12.4893 47.2195 12.4893C46.804 12.4893 46.4578 12.5971 46.1808 12.8125C45.9038 13.0279 45.6945 13.3219 45.5529 13.6942C45.4144 14.0666 45.3452 14.4867 45.3452 14.9545C45.3452 15.4285 45.416 15.8548 45.5575 16.2333C45.6991 16.6119 45.9084 16.9119 46.1854 17.1335C46.4654 17.352 46.8101 17.4613 47.2195 17.4613ZM55.371 21.3068C54.8078 21.3068 54.3231 21.233 53.9168 21.0852C53.5137 20.9375 53.1843 20.7421 52.9289 20.4989C52.6735 20.2558 52.4826 19.9896 52.3565 19.7003L53.5429 19.2109C53.626 19.3464 53.7368 19.4895 53.8753 19.6403C54.0168 19.7942 54.2077 19.925 54.4477 20.0327C54.6909 20.1404 55.0032 20.1942 55.3849 20.1942C55.9081 20.1942 56.3405 20.0665 56.6821 19.8111C57.0237 19.5587 57.1945 19.1555 57.1945 18.6016V17.2074H57.1068C57.0237 17.3582 56.9037 17.5259 56.7467 17.7106C56.5928 17.8952 56.3805 18.0553 56.1097 18.1907C55.8388 18.3261 55.4864 18.3938 55.0525 18.3938C54.4923 18.3938 53.9876 18.263 53.5383 18.0014C53.092 17.7367 52.7381 17.3474 52.4765 16.8335C52.218 16.3164 52.0887 15.6809 52.0887 14.9268C52.0887 14.1728 52.2164 13.5265 52.4719 12.9879C52.7304 12.4493 53.0843 12.0369 53.5337 11.7507C53.983 11.4614 54.4923 11.3168 55.0617 11.3168C55.5018 11.3168 55.8573 11.3906 56.1281 11.5384C56.399 11.683 56.6098 11.8523 56.7606 12.0462C56.9145 12.2401 57.0329 12.4109 57.116 12.5586H57.2176V11.4091H58.5702V18.657C58.5702 19.2663 58.4287 19.7665 58.1455 20.1573C57.8624 20.5482 57.4792 20.8375 56.996 21.0252C56.5159 21.2129 55.9742 21.3068 55.371 21.3068ZM55.3572 17.2489C55.7542 17.2489 56.0896 17.1566 56.3636 16.9719C56.6405 16.7842 56.8498 16.5165 56.9914 16.1687C57.136 15.8178 57.2084 15.3977 57.2084 14.9084C57.2084 14.4313 57.1376 14.0112 56.996 13.6481C56.8544 13.2849 56.6467 13.0018 56.3728 12.7987C56.0989 12.5924 55.7603 12.4893 55.3572 12.4893C54.9417 12.4893 54.5954 12.5971 54.3185 12.8125C54.0415 13.0249 53.8322 13.3142 53.6906 13.6804C53.5521 14.0466 53.4829 14.456 53.4829 14.9084C53.4829 15.3731 53.5537 15.7809 53.6952 16.1317C53.8368 16.4826 54.0461 16.7565 54.3231 16.9535C54.6031 17.1504 54.9478 17.2489 55.3572 17.2489ZM63.4776 18.6431C62.7789 18.6431 62.1772 18.4938 61.6725 18.1953C61.1709 17.8937 60.7831 17.4705 60.5092 16.9258C60.2383 16.378 60.1029 15.7363 60.1029 15.0007C60.1029 14.2744 60.2383 13.6342 60.5092 13.0803C60.7831 12.5263 61.1647 12.0939 61.654 11.783C62.1465 11.4722 62.722 11.3168 63.3806 11.3168C63.7807 11.3168 64.1685 11.3829 64.544 11.5153C64.9194 11.6476 65.2564 11.8554 65.555 12.1385C65.8535 12.4216 66.0889 12.7894 66.2613 13.2418C66.4336 13.6912 66.5198 14.2375 66.5198 14.8807V15.37H60.8831V14.3359H65.1672C65.1672 13.9728 65.0933 13.6512 64.9456 13.3711C64.7979 13.0879 64.5901 12.8648 64.3224 12.7017C64.0577 12.5386 63.7468 12.457 63.3898 12.457C63.0021 12.457 62.6635 12.5524 62.3742 12.7433C62.088 12.931 61.8664 13.1772 61.7094 13.4819C61.5556 13.7835 61.4786 14.1113 61.4786 14.4652V15.2731C61.4786 15.747 61.5617 16.1502 61.7279 16.4826C61.8972 16.815 62.1326 17.0689 62.4342 17.2443C62.7358 17.4167 63.0882 17.5028 63.4914 17.5028C63.753 17.5028 63.9915 17.4659 64.207 17.392C64.4224 17.3151 64.6086 17.2012 64.7655 17.0504C64.9225 16.8996 65.0425 16.7134 65.1256 16.4918L66.4321 16.7273C66.3275 17.112 66.1397 17.449 65.8689 17.7383C65.6011 18.0245 65.2641 18.2476 64.8579 18.4077C64.4547 18.5646 63.9946 18.6431 63.4776 18.6431ZM71.3613 11.4091V12.517H67.4881V11.4091H71.3613ZM68.5268 9.71023H69.9071V16.418C69.9071 16.6857 69.9472 16.8873 70.0272 17.0227C70.1072 17.1551 70.2103 17.2459 70.3365 17.2951C70.4657 17.3413 70.6058 17.3643 70.7566 17.3643C70.8674 17.3643 70.9643 17.3567 71.0474 17.3413C71.1305 17.3259 71.1951 17.3136 71.2413 17.3043L71.4906 18.4446C71.4106 18.4754 71.2967 18.5062 71.149 18.5369C71.0013 18.5708 70.8166 18.5893 70.595 18.5923C70.2318 18.5985 69.8933 18.5339 69.5794 18.3984C69.2655 18.263 69.0116 18.0537 68.8177 17.7706C68.6238 17.4875 68.5268 17.132 68.5268 16.7042V9.71023ZM76.4395 9.04545H78.1706L81.1806 16.3949H81.2914L84.3013 9.04545H86.0325V18.5H84.6753V11.6584H84.5875L81.7992 18.4862H80.6728L77.8844 11.6538H77.7967V18.5H76.4395V9.04545ZM90.0592 18.657C89.6099 18.657 89.2036 18.5739 88.8405 18.4077C88.4773 18.2384 88.1896 17.9937 87.9772 17.6737C87.7679 17.3536 87.6633 16.9612 87.6633 16.4964C87.6633 16.0964 87.7402 15.767 87.8941 15.5085C88.048 15.25 88.2557 15.0453 88.5173 14.8945C88.7789 14.7437 89.0713 14.6299 89.3945 14.5529C89.7176 14.476 90.0469 14.4175 90.3824 14.3775C90.8071 14.3282 91.1518 14.2882 91.4165 14.2575C91.6811 14.2236 91.8735 14.1697 91.9935 14.0959C92.1136 14.022 92.1736 13.902 92.1736 13.7358V13.7035C92.1736 13.3003 92.0597 12.9879 91.832 12.7663C91.6073 12.5447 91.2718 12.4339 90.8256 12.4339C90.3608 12.4339 89.9946 12.537 89.7268 12.7433C89.4622 12.9464 89.279 13.1726 89.1775 13.4219L87.8802 13.1264C88.0341 12.6955 88.2588 12.3478 88.5543 12.0831C88.8528 11.8153 89.1959 11.6214 89.5837 11.5014C89.9715 11.3783 90.3793 11.3168 90.8071 11.3168C91.0902 11.3168 91.3903 11.3506 91.7073 11.4183C92.0274 11.483 92.3259 11.603 92.6029 11.7784C92.883 11.9538 93.1123 12.2047 93.2908 12.5309C93.4693 12.854 93.5585 13.2741 93.5585 13.7912V18.5H92.2105V17.5305H92.1551C92.0659 17.709 91.932 17.8845 91.7535 18.0568C91.575 18.2292 91.3457 18.3723 91.0656 18.4862C90.7856 18.6 90.4501 18.657 90.0592 18.657ZM90.3593 17.549C90.7409 17.549 91.0672 17.4736 91.338 17.3228C91.6119 17.172 91.8196 16.975 91.9612 16.7319C92.1059 16.4857 92.1782 16.2225 92.1782 15.9425V15.0284C92.1289 15.0777 92.0335 15.1238 91.892 15.1669C91.7535 15.2069 91.595 15.2423 91.4165 15.2731C91.238 15.3008 91.0641 15.3269 90.8948 15.3516C90.7255 15.3731 90.584 15.3916 90.4701 15.407C90.2023 15.4408 89.9577 15.4978 89.7361 15.5778C89.5176 15.6578 89.3421 15.7732 89.2098 15.924C89.0805 16.0717 89.0159 16.2687 89.0159 16.5149C89.0159 16.8565 89.1421 17.1151 89.3945 17.2905C89.6468 17.4628 89.9684 17.549 90.3593 17.549ZM96.7774 14.2898V18.5H95.397V11.4091H96.722V12.5632H96.8097C96.9728 12.1877 97.2282 11.8861 97.576 11.6584C97.9269 11.4306 98.3685 11.3168 98.9009 11.3168C99.3841 11.3168 99.8073 11.4183 100.17 11.6214C100.534 11.8215 100.815 12.12 101.015 12.517C101.215 12.9141 101.315 13.4049 101.315 13.9897V18.5H99.935V14.1559C99.935 13.6419 99.8011 13.2403 99.5334 12.951C99.2656 12.6586 98.8979 12.5124 98.4301 12.5124C98.11 12.5124 97.8253 12.5817 97.576 12.7202C97.3298 12.8587 97.1344 13.0618 96.9897 13.3295C96.8481 13.5942 96.7774 13.9143 96.7774 14.2898ZM105.23 18.657C104.781 18.657 104.375 18.5739 104.011 18.4077C103.648 18.2384 103.36 17.9937 103.148 17.6737C102.939 17.3536 102.834 16.9612 102.834 16.4964C102.834 16.0964 102.911 15.767 103.065 15.5085C103.219 15.25 103.427 15.0453 103.688 14.8945C103.95 14.7437 104.242 14.6299 104.565 14.5529C104.889 14.476 105.218 14.4175 105.553 14.3775C105.978 14.3282 106.323 14.2882 106.587 14.2575C106.852 14.2236 107.044 14.1697 107.164 14.0959C107.284 14.022 107.344 13.902 107.344 13.7358V13.7035C107.344 13.3003 107.231 12.9879 107.003 12.7663C106.778 12.5447 106.443 12.4339 105.996 12.4339C105.532 12.4339 105.165 12.537 104.898 12.7433C104.633 12.9464 104.45 13.1726 104.348 13.4219L103.051 13.1264C103.205 12.6955 103.43 12.3478 103.725 12.0831C104.024 11.8153 104.367 11.6214 104.755 11.5014C105.142 11.3783 105.55 11.3168 105.978 11.3168C106.261 11.3168 106.561 11.3506 106.878 11.4183C107.198 11.483 107.497 11.603 107.774 11.7784C108.054 11.9538 108.283 12.2047 108.462 12.5309C108.64 12.854 108.729 13.2741 108.729 13.7912V18.5H107.381V17.5305H107.326C107.237 17.709 107.103 17.8845 106.924 18.0568C106.746 18.2292 106.517 18.3723 106.237 18.4862C105.956 18.6 105.621 18.657 105.23 18.657ZM105.53 17.549C105.912 17.549 106.238 17.4736 106.509 17.3228C106.783 17.172 106.991 16.975 107.132 16.7319C107.277 16.4857 107.349 16.2225 107.349 15.9425V15.0284C107.3 15.0777 107.204 15.1238 107.063 15.1669C106.924 15.2069 106.766 15.2423 106.587 15.2731C106.409 15.3008 106.235 15.3269 106.066 15.3516C105.896 15.3731 105.755 15.3916 105.641 15.407C105.373 15.4408 105.129 15.4978 104.907 15.5778C104.688 15.6578 104.513 15.7732 104.381 15.924C104.251 16.0717 104.187 16.2687 104.187 16.5149C104.187 16.8565 104.313 17.1151 104.565 17.2905C104.818 17.4628 105.139 17.549 105.53 17.549ZM113.541 21.3068C112.978 21.3068 112.493 21.233 112.087 21.0852C111.684 20.9375 111.354 20.7421 111.099 20.4989C110.843 20.2558 110.653 19.9896 110.526 19.7003L111.713 19.2109C111.796 19.3464 111.907 19.4895 112.045 19.6403C112.187 19.7942 112.378 19.925 112.618 20.0327C112.861 20.1404 113.173 20.1942 113.555 20.1942C114.078 20.1942 114.51 20.0665 114.852 19.8111C115.194 19.5587 115.364 19.1555 115.364 18.6016V17.2074H115.277C115.194 17.3582 115.074 17.5259 114.917 17.7106C114.763 17.8952 114.55 18.0553 114.28 18.1907C114.009 18.3261 113.656 18.3938 113.222 18.3938C112.662 18.3938 112.158 18.263 111.708 18.0014C111.262 17.7367 110.908 17.3474 110.646 16.8335C110.388 16.3164 110.259 15.6809 110.259 14.9268C110.259 14.1728 110.386 13.5265 110.642 12.9879C110.9 12.4493 111.254 12.0369 111.704 11.7507C112.153 11.4614 112.662 11.3168 113.232 11.3168C113.672 11.3168 114.027 11.3906 114.298 11.5384C114.569 11.683 114.78 11.8523 114.93 12.0462C115.084 12.2401 115.203 12.4109 115.286 12.5586H115.388V11.4091H116.74V18.657C116.74 19.2663 116.599 19.7665 116.315 20.1573C116.032 20.5482 115.649 20.8375 115.166 21.0252C114.686 21.2129 114.144 21.3068 113.541 21.3068ZM113.527 17.2489C113.924 17.2489 114.26 17.1566 114.533 16.9719C114.81 16.7842 115.02 16.5165 115.161 16.1687C115.306 15.8178 115.378 15.3977 115.378 14.9084C115.378 14.4313 115.308 14.0112 115.166 13.6481C115.024 13.2849 114.817 13.0018 114.543 12.7987C114.269 12.5924 113.93 12.4893 113.527 12.4893C113.112 12.4893 112.765 12.5971 112.488 12.8125C112.211 13.0249 112.002 13.3142 111.861 13.6804C111.722 14.0466 111.653 14.456 111.653 14.9084C111.653 15.3731 111.724 15.7809 111.865 16.1317C112.007 16.4826 112.216 16.7565 112.493 16.9535C112.773 17.1504 113.118 17.2489 113.527 17.2489ZM121.647 18.6431C120.949 18.6431 120.347 18.4938 119.842 18.1953C119.341 17.8937 118.953 17.4705 118.679 16.9258C118.408 16.378 118.273 15.7363 118.273 15.0007C118.273 14.2744 118.408 13.6342 118.679 13.0803C118.953 12.5263 119.335 12.0939 119.824 11.783C120.316 11.4722 120.892 11.3168 121.551 11.3168C121.951 11.3168 122.338 11.3829 122.714 11.5153C123.089 11.6476 123.426 11.8554 123.725 12.1385C124.023 12.4216 124.259 12.7894 124.431 13.2418C124.604 13.6912 124.69 14.2375 124.69 14.8807V15.37H119.053V14.3359H123.337C123.337 13.9728 123.263 13.6512 123.116 13.3711C122.968 13.0879 122.76 12.8648 122.492 12.7017C122.228 12.5386 121.917 12.457 121.56 12.457C121.172 12.457 120.833 12.5524 120.544 12.7433C120.258 12.931 120.036 13.1772 119.879 13.4819C119.725 13.7835 119.649 14.1113 119.649 14.4652V15.2731C119.649 15.747 119.732 16.1502 119.898 16.4826C120.067 16.815 120.303 17.0689 120.604 17.2443C120.906 17.4167 121.258 17.5028 121.661 17.5028C121.923 17.5028 122.161 17.4659 122.377 17.392C122.592 17.3151 122.779 17.2012 122.935 17.0504C123.092 16.8996 123.212 16.7134 123.296 16.4918L124.602 16.7273C124.497 17.112 124.31 17.449 124.039 17.7383C123.771 18.0245 123.434 18.2476 123.028 18.4077C122.625 18.5646 122.165 18.6431 121.647 18.6431ZM126.221 18.5V11.4091H127.555V12.5355H127.629C127.759 12.1539 127.986 11.8538 128.313 11.6353C128.642 11.4137 129.014 11.3029 129.43 11.3029C129.516 11.3029 129.617 11.306 129.734 11.3121C129.854 11.3183 129.948 11.326 130.016 11.3352V12.6555C129.961 12.6402 129.862 12.6232 129.721 12.6048C129.579 12.5832 129.437 12.5724 129.296 12.5724C128.97 12.5724 128.679 12.6417 128.423 12.7802C128.171 12.9156 127.971 13.1049 127.823 13.348C127.675 13.5881 127.602 13.862 127.602 14.1697V18.5H126.221Z" fill="#898989"/>
</g>
</g>
<defs>
<clipPath id="clip0_663_3268">
<rect width="136" height="26" rx="5" fill="white"/>
</clipPath>
<clipPath id="clip1_663_3268">
<rect width="139.29" height="24" fill="white" transform="translate(4.38708 2)"/>
</clipPath>
<clipPath id="clip2_663_3268">
<rect width="17" height="17" fill="white" transform="translate(5.38708 5.5)"/>
</clipPath>
</defs>
</svg>
