<svg width="84" height="718" viewBox="0 0 84 718" fill="none" xmlns="http://www.w3.org/2000/svg">
<g clip-path="url(#clip0_662_2985)">
<rect width="84" height="718" rx="15" fill="#D2D2D2"/>
<path fill-rule="evenodd" clip-rule="evenodd" d="M45.7901 18.0261C46.0742 18.0636 46.6294 18.2261 47.0168 18.4136C47.4041 18.5886 48.0756 19.0511 48.5016 19.4386C48.9277 19.8261 49.4571 20.4636 49.6767 20.8761C49.9091 21.2761 50.1286 21.8011 50.1802 22.0261C50.2319 22.2636 50.2448 22.7011 50.1931 23.0011C50.1415 23.3386 49.9736 23.7011 49.767 23.9511C49.5604 24.1636 48.5404 24.9886 47.4945 25.7886C46.4357 26.5886 45.1187 27.5761 44.5764 27.9886C44.0341 28.4011 43.2335 29.0011 42.0456 29.9136L39.3212 27.8261C37.8234 26.6761 36.0802 25.3386 35.4604 24.8636C34.5824 24.1886 34.2596 23.8636 34.0659 23.4261C33.8852 23.0261 33.8335 22.7011 33.8852 22.3011C33.9239 21.9886 34.1305 21.4011 34.35 20.9886C34.5824 20.5136 35.0343 19.9636 35.5508 19.4886C35.9898 19.0761 36.7 18.5761 37.1132 18.3886C37.6813 18.1261 38.0429 18.0511 39.5277 18.0511V22.0511L40.7544 22.9886C41.5679 23.6011 42.0456 23.8886 42.1618 23.8386C42.2522 23.7761 42.872 23.3511 44.6926 21.9886V20.0136C44.6926 18.0761 44.6926 18.0511 44.9896 18.0136C45.1445 17.9886 45.506 18.0011 45.7901 18.0261ZM34.4016 26.6761C34.7374 26.6761 35.2022 26.7636 35.4346 26.8636C35.6541 26.9636 36.0027 27.2011 36.2093 27.3886C36.4288 27.6136 36.6613 28.0636 36.8162 28.6136C36.9582 29.1011 37.2036 29.6136 37.3714 29.7636C37.5264 29.9261 38.0945 30.3511 38.6239 30.7136C39.3341 31.1886 39.6698 31.5136 39.8893 31.9261C40.0571 32.2511 40.1734 32.7136 40.1734 33.0261C40.1734 33.3136 40.083 33.7636 39.9668 34.0261C39.8635 34.2761 39.644 34.6261 39.489 34.7886C39.3341 34.9511 38.9725 35.1886 38.6885 35.3136C38.4044 35.4386 37.8879 35.5511 37.5264 35.5511C37.1261 35.5511 36.6613 35.4386 36.2997 35.2761C35.9769 35.1261 35.2409 34.5386 34.6212 33.9386C34.0143 33.3386 33.3299 32.5511 33.1104 32.1761C32.878 31.8011 32.5294 31.1261 32.3486 30.6761C32.1291 30.1511 32 29.6261 32 29.1761C32 28.7261 32.0904 28.3136 32.2582 27.9886C32.4132 27.7136 32.6327 27.4011 32.7618 27.2886C32.9038 27.1761 33.1879 26.9886 33.3945 26.8886C33.614 26.7761 34.053 26.6886 34.4016 26.6761ZM49.5992 26.6886C49.922 26.6886 50.4256 26.7886 50.7354 26.9261C51.097 27.1011 51.4069 27.3636 51.6651 27.7761C51.975 28.2511 52.0525 28.5011 52.0525 29.0511C52.0525 29.4386 51.9234 30.1011 51.7555 30.5511C51.5876 31.0011 51.1745 31.7886 50.8387 32.3011C50.4901 32.8136 49.8316 33.6011 49.3538 34.0511C48.889 34.5011 48.2176 35.0386 47.856 35.2386C47.3525 35.5386 47.0555 35.6136 46.5003 35.6011C46.0484 35.6011 45.6093 35.5136 45.2736 35.3386C44.9896 35.2011 44.6022 34.9136 44.4085 34.6886C44.2019 34.4761 43.9824 34.0636 43.892 33.7761C43.7758 33.3636 43.7758 33.1011 43.9049 32.6136C43.9953 32.2761 44.2148 31.8136 44.3956 31.5886C44.5893 31.3636 45.0412 30.9886 45.3898 30.7511C45.7514 30.5136 46.2937 30.1136 46.6036 29.8761C47.0426 29.5136 47.1717 29.3136 47.275 28.8011C47.3525 28.4636 47.4816 28.0261 47.5849 27.8386C47.6882 27.6386 47.9077 27.3636 48.0756 27.2136C48.2305 27.0636 48.5146 26.8886 48.6953 26.8136C48.8761 26.7511 49.2764 26.6886 49.5992 26.6886Z" fill="#585858"/>
<path d="M68.5 32L73 27.5L68.5 23" stroke="#636363" stroke-width="2" stroke-linecap="round" stroke-linejoin="round"/>
<path d="M31.5 65H52.5" stroke="#4E4E4E" stroke-width="3" stroke-linecap="round"/>
<rect x="22" y="76" width="40" height="34" rx="8" fill="#C5C5C5"/>
<g clip-path="url(#clip1_662_2985)">
<path d="M37.75 93H36.25L43 86.25L49.75 93H48.25" stroke="#555555" stroke-width="1.5" stroke-linecap="round" stroke-linejoin="round"/>
<path d="M37.75 93V98.25C37.75 98.6478 37.908 99.0294 38.1893 99.3107C38.4706 99.592 38.8522 99.75 39.25 99.75H46.75C47.1478 99.75 47.5294 99.592 47.8107 99.3107C48.092 99.0294 48.25 98.6478 48.25 98.25V93" stroke="#555555" stroke-width="1.5" stroke-linecap="round" stroke-linejoin="round"/>
<path d="M40.75 99.75V95.25C40.75 94.8522 40.908 94.4706 41.1893 94.1893C41.4706 93.908 41.8522 93.75 42.25 93.75H43.75C44.1478 93.75 44.5294 93.908 44.8107 94.1893C45.092 94.4706 45.25 94.8522 45.25 95.25V99.75" stroke="#555555" stroke-width="1.5" stroke-linecap="round" stroke-linejoin="round"/>
</g>
<g clip-path="url(#clip2_662_2985)">
<path d="M40 120.25H36.25V124" stroke="#555555" stroke-width="1.5" stroke-linecap="round" stroke-linejoin="round"/>
<path d="M46 120.25H49.75V124" stroke="#555555" stroke-width="1.5" stroke-linecap="round" stroke-linejoin="round"/>
<path d="M36.25 120.25L41.902 125.902C42.6049 126.605 42.9998 127.558 43 128.552V133.75" stroke="#555555" stroke-width="1.5" stroke-linecap="round" stroke-linejoin="round"/>
<path d="M47.5 122.507V122.5" stroke="#555555" stroke-width="1.5" stroke-linecap="round" stroke-linejoin="round"/>
<path d="M46 124.014V124.008" stroke="#555555" stroke-width="1.5" stroke-linecap="round" stroke-linejoin="round"/>
<path d="M44.5 125.5V125.507" stroke="#555555" stroke-width="1.5" stroke-linecap="round" stroke-linejoin="round"/>
</g>
<g clip-path="url(#clip3_662_2985)">
<path d="M39.7857 153.545V169.455M37.1339 153.545H46.8571C47.326 153.545 47.7757 153.731 48.1072 154.062C48.4387 154.394 48.625 154.844 48.625 155.313V165.92C48.625 166.389 48.4387 166.838 48.1072 167.17C47.7757 167.501 47.326 167.688 46.8571 167.688H37.1339C36.8995 167.688 36.6747 167.594 36.5089 167.429C36.3431 167.263 36.25 167.038 36.25 166.804V154.429C36.25 154.194 36.3431 153.969 36.5089 153.804C36.6747 153.638 36.8995 153.545 37.1339 153.545Z" stroke="#555555" stroke-width="1.5" stroke-linecap="round" stroke-linejoin="round"/>
<path d="M41.875 157.062H43" stroke="#555555" stroke-width="1.5" stroke-linecap="round" stroke-linejoin="round"/>
<path d="M41.875 159.312H43" stroke="#555555" stroke-width="1.5" stroke-linecap="round" stroke-linejoin="round"/>
</g>
<g clip-path="url(#clip4_662_2985)">
<path d="M37 190.5C37 190.102 37.158 189.721 37.4393 189.439C37.7206 189.158 38.1022 189 38.5 189H40C40.3978 189 40.7794 189.158 41.0607 189.439C41.342 189.721 41.5 190.102 41.5 190.5V199.5C41.5 199.898 41.342 200.279 41.0607 200.561C40.7794 200.842 40.3978 201 40 201H38.5C38.1022 201 37.7206 200.842 37.4393 200.561C37.158 200.279 37 199.898 37 199.5V190.5Z" stroke="#555555" stroke-width="1.5" stroke-linecap="round" stroke-linejoin="round"/>
<path d="M44.5 190.5C44.5 190.102 44.658 189.721 44.9393 189.439C45.2206 189.158 45.6022 189 46 189H47.5C47.8978 189 48.2794 189.158 48.5607 189.439C48.842 189.721 49 190.102 49 190.5V195C49 195.398 48.842 195.779 48.5607 196.061C48.2794 196.342 47.8978 196.5 47.5 196.5H46C45.6022 196.5 45.2206 196.342 44.9393 196.061C44.658 195.779 44.5 195.398 44.5 195V190.5Z" stroke="#555555" stroke-width="1.5" stroke-linecap="round" stroke-linejoin="round"/>
</g>
<g clip-path="url(#clip5_662_2985)">
<path d="M43.75 223.75H49.75" stroke="#555555" stroke-width="1.5" stroke-linecap="round" stroke-linejoin="round"/>
<path d="M43.75 226.75H47.5" stroke="#555555" stroke-width="1.5" stroke-linecap="round" stroke-linejoin="round"/>
<path d="M43.75 231.25H49.75" stroke="#555555" stroke-width="1.5" stroke-linecap="round" stroke-linejoin="round"/>
<path d="M43.75 234.25H47.5" stroke="#555555" stroke-width="1.5" stroke-linecap="round" stroke-linejoin="round"/>
<path d="M36.25 223.75C36.25 223.551 36.329 223.36 36.4697 223.22C36.6103 223.079 36.8011 223 37 223H40C40.1989 223 40.3897 223.079 40.5303 223.22C40.671 223.36 40.75 223.551 40.75 223.75V226.75C40.75 226.949 40.671 227.14 40.5303 227.28C40.3897 227.421 40.1989 227.5 40 227.5H37C36.8011 227.5 36.6103 227.421 36.4697 227.28C36.329 227.14 36.25 226.949 36.25 226.75V223.75Z" stroke="#555555" stroke-width="1.5" stroke-linecap="round" stroke-linejoin="round"/>
<path d="M36.25 231.25C36.25 231.051 36.329 230.86 36.4697 230.72C36.6103 230.579 36.8011 230.5 37 230.5H40C40.1989 230.5 40.3897 230.579 40.5303 230.72C40.671 230.86 40.75 231.051 40.75 231.25V234.25C40.75 234.449 40.671 234.64 40.5303 234.78C40.3897 234.921 40.1989 235 40 235H37C36.8011 235 36.6103 234.921 36.4697 234.78C36.329 234.64 36.25 234.449 36.25 234.25V231.25Z" stroke="#555555" stroke-width="1.5" stroke-linecap="round" stroke-linejoin="round"/>
</g>
<path d="M31.5 255.5H52.5" stroke="#4E4E4E" stroke-width="3" stroke-linecap="round"/>
<g clip-path="url(#clip6_662_2985)">
<path d="M36.25 299.75C36.25 299.352 36.408 298.971 36.6893 298.689C36.9706 298.408 37.3522 298.25 37.75 298.25H39.25C39.6478 298.25 40.0294 298.408 40.3107 298.689C40.592 298.971 40.75 299.352 40.75 299.75V301.25C40.75 301.648 40.592 302.029 40.3107 302.311C40.0294 302.592 39.6478 302.75 39.25 302.75H37.75C37.3522 302.75 36.9706 302.592 36.6893 302.311C36.408 302.029 36.25 301.648 36.25 301.25V299.75Z" stroke="#555555" stroke-width="1.5" stroke-linecap="round" stroke-linejoin="round"/>
<path d="M45.25 299.75C45.25 299.352 45.408 298.971 45.6893 298.689C45.9706 298.408 46.3522 298.25 46.75 298.25H48.25C48.6478 298.25 49.0294 298.408 49.3107 298.689C49.592 298.971 49.75 299.352 49.75 299.75V301.25C49.75 301.648 49.592 302.029 49.3107 302.311C49.0294 302.592 48.6478 302.75 48.25 302.75H46.75C46.3522 302.75 45.9706 302.592 45.6893 302.311C45.408 302.029 45.25 301.648 45.25 301.25V299.75Z" stroke="#555555" stroke-width="1.5" stroke-linecap="round" stroke-linejoin="round"/>
<path d="M40.75 290.75C40.75 290.352 40.908 289.971 41.1893 289.689C41.4706 289.408 41.8522 289.25 42.25 289.25H43.75C44.1478 289.25 44.5294 289.408 44.8107 289.689C45.092 289.971 45.25 290.352 45.25 290.75V292.25C45.25 292.648 45.092 293.029 44.8107 293.311C44.5294 293.592 44.1478 293.75 43.75 293.75H42.25C41.8522 293.75 41.4706 293.592 41.1893 293.311C40.908 293.029 40.75 292.648 40.75 292.25V290.75Z" stroke="#555555" stroke-width="1.5" stroke-linecap="round" stroke-linejoin="round"/>
<path d="M38.5 298.25V297.5C38.5 297.102 38.658 296.721 38.9393 296.439C39.2206 296.158 39.6022 296 40 296H46C46.3978 296 46.7794 296.158 47.0607 296.439C47.342 296.721 47.5 297.102 47.5 297.5V298.25" stroke="#555555" stroke-width="1.5" stroke-linecap="round" stroke-linejoin="round"/>
<path d="M43 293.75V296" stroke="#555555" stroke-width="1.5" stroke-linecap="round" stroke-linejoin="round"/>
</g>
<g clip-path="url(#clip7_662_2985)">
<path d="M40.75 330L38.5 327.75H37C36.8011 327.75 36.6103 327.829 36.4697 327.97C36.329 328.11 36.25 328.301 36.25 328.5V331.5C36.25 331.699 36.329 331.89 36.4697 332.03C36.6103 332.171 36.8011 332.25 37 332.25H38.5L40.75 330Z" stroke="#555555" stroke-width="1.5" stroke-linecap="round" stroke-linejoin="round"/>
<path d="M45.25 330L47.5 327.75H49C49.1989 327.75 49.3897 327.829 49.5303 327.97C49.671 328.11 49.75 328.301 49.75 328.5V331.5C49.75 331.699 49.671 331.89 49.5303 332.03C49.3897 332.171 49.1989 332.25 49 332.25H47.5L45.25 330Z" stroke="#555555" stroke-width="1.5" stroke-linecap="round" stroke-linejoin="round"/>
<path d="M43 332.25L40.75 334.5V336C40.75 336.199 40.829 336.39 40.9697 336.53C41.1103 336.671 41.3011 336.75 41.5 336.75H44.5C44.6989 336.75 44.8897 336.671 45.0303 336.53C45.171 336.39 45.25 336.199 45.25 336V334.5L43 332.25Z" stroke="#555555" stroke-width="1.5" stroke-linecap="round" stroke-linejoin="round"/>
<path d="M43 327.75L40.75 325.5V324C40.75 323.801 40.829 323.61 40.9697 323.47C41.1103 323.329 41.3011 323.25 41.5 323.25H44.5C44.6989 323.25 44.8897 323.329 45.0303 323.47C45.171 323.61 45.25 323.801 45.25 324V325.5L43 327.75Z" stroke="#555555" stroke-width="1.5" stroke-linecap="round" stroke-linejoin="round"/>
</g>
<g clip-path="url(#clip8_662_2985)">
<path d="M37 360.25H39.25C39.4489 360.25 39.6397 360.171 39.7803 360.03C39.921 359.89 40 359.699 40 359.5V358.75C40 358.352 40.158 357.971 40.4393 357.689C40.7206 357.408 41.1022 357.25 41.5 357.25C41.8978 357.25 42.2794 357.408 42.5607 357.689C42.842 357.971 43 358.352 43 358.75V359.5C43 359.699 43.079 359.89 43.2197 360.03C43.3603 360.171 43.5511 360.25 43.75 360.25H46C46.1989 360.25 46.3897 360.329 46.5303 360.47C46.671 360.61 46.75 360.801 46.75 361V363.25C46.75 363.449 46.829 363.64 46.9697 363.78C47.1103 363.921 47.3011 364 47.5 364H48.25C48.6478 364 49.0294 364.158 49.3107 364.439C49.592 364.721 49.75 365.102 49.75 365.5C49.75 365.898 49.592 366.279 49.3107 366.561C49.0294 366.842 48.6478 367 48.25 367H47.5C47.3011 367 47.1103 367.079 46.9697 367.22C46.829 367.36 46.75 367.551 46.75 367.75V370C46.75 370.199 46.671 370.39 46.5303 370.53C46.3897 370.671 46.1989 370.75 46 370.75H43.75C43.5511 370.75 43.3603 370.671 43.2197 370.53C43.079 370.39 43 370.199 43 370V369.25C43 368.852 42.842 368.471 42.5607 368.189C42.2794 367.908 41.8978 367.75 41.5 367.75C41.1022 367.75 40.7206 367.908 40.4393 368.189C40.158 368.471 40 368.852 40 369.25V370C40 370.199 39.921 370.39 39.7803 370.53C39.6397 370.671 39.4489 370.75 39.25 370.75H37C36.8011 370.75 36.6103 370.671 36.4697 370.53C36.329 370.39 36.25 370.199 36.25 370V367.75C36.25 367.551 36.329 367.36 36.4697 367.22C36.6103 367.079 36.8011 367 37 367H37.75C38.1478 367 38.5294 366.842 38.8107 366.561C39.092 366.279 39.25 365.898 39.25 365.5C39.25 365.102 39.092 364.721 38.8107 364.439C38.5294 364.158 38.1478 364 37.75 364H37C36.8011 364 36.6103 363.921 36.4697 363.78C36.329 363.64 36.25 363.449 36.25 363.25V361C36.25 360.801 36.329 360.61 36.4697 360.47C36.6103 360.329 36.8011 360.25 37 360.25Z" stroke="#555555" stroke-width="1.5" stroke-linecap="round" stroke-linejoin="round"/>
</g>
<path d="M31.5 392H52.5" stroke="#4E4E4E" stroke-width="3" stroke-linecap="round"/>
<g clip-path="url(#clip9_662_2985)">
<g clip-path="url(#clip10_662_2985)">
<path d="M37 417H40V420H37V417Z" stroke="#555555" stroke-width="1.5" stroke-linecap="round" stroke-linejoin="round"/>
<path d="M38.5 414V417" stroke="#555555" stroke-width="1.5" stroke-linecap="round" stroke-linejoin="round"/>
<path d="M38.5 420V426" stroke="#555555" stroke-width="1.5" stroke-linecap="round" stroke-linejoin="round"/>
<path d="M41.5 421.5H44.5V424.5H41.5V421.5Z" stroke="#555555" stroke-width="1.5" stroke-linecap="round" stroke-linejoin="round"/>
<path d="M43 414V421.5" stroke="#555555" stroke-width="1.5" stroke-linecap="round" stroke-linejoin="round"/>
<path d="M43 424.5V426" stroke="#555555" stroke-width="1.5" stroke-linecap="round" stroke-linejoin="round"/>
<path d="M46 414.75H49V417.75H46V414.75Z" stroke="#555555" stroke-width="1.5" stroke-linecap="round" stroke-linejoin="round"/>
<path d="M47.5 414V414.75" stroke="#555555" stroke-width="1.5" stroke-linecap="round" stroke-linejoin="round"/>
<path d="M47.5 417.75V426" stroke="#555555" stroke-width="1.5" stroke-linecap="round" stroke-linejoin="round"/>
</g>
</g>
<rect x="21" y="663" width="38" height="38" rx="9" fill="white"/>
<g clip-path="url(#clip11_662_2985)">
<path d="M36.2985 682.678L37.3007 681.676L34.8363 680.021C34.6656 679.929 34.5272 679.787 34.4395 679.614C34.3519 679.442 34.3191 679.246 34.3458 679.054C34.3724 678.862 34.4571 678.683 34.5885 678.54C34.7199 678.398 34.8917 678.299 35.0809 678.257L45.8333 675.167L42.7426 685.904C42.7005 686.093 42.6016 686.265 42.4591 686.396C42.3166 686.527 42.1374 686.612 41.9454 686.639C41.7535 686.665 41.558 686.632 41.3852 686.545C41.2125 686.457 41.0706 686.318 40.9788 686.148L39.3242 683.699L37.9958 685.028" stroke="#555555" stroke-width="2" stroke-linecap="round" stroke-linejoin="round"/>
<path d="M33.9584 684.667L35.5417 687.042H32.375L33.9584 689.417" stroke="#555555" stroke-width="2" stroke-linecap="round" stroke-linejoin="round"/>
</g>
</g>
<defs>
<clipPath id="clip0_662_2985">
<rect width="84" height="718" rx="15" fill="white"/>
</clipPath>
<clipPath id="clip1_662_2985">
<rect width="18" height="18" fill="white" transform="translate(34 84)"/>
</clipPath>
<clipPath id="clip2_662_2985">
<rect width="18" height="18" fill="white" transform="translate(34 118)"/>
</clipPath>
<clipPath id="clip3_662_2985">
<rect width="18" height="18" fill="white" transform="translate(34 152)"/>
</clipPath>
<clipPath id="clip4_662_2985">
<rect width="18" height="18" fill="white" transform="translate(34 186)"/>
</clipPath>
<clipPath id="clip5_662_2985">
<rect width="18" height="18" fill="white" transform="translate(34 220)"/>
</clipPath>
<clipPath id="clip6_662_2985">
<rect width="18" height="18" fill="white" transform="translate(34 287)"/>
</clipPath>
<clipPath id="clip7_662_2985">
<rect width="18" height="18" fill="white" transform="translate(34 321)"/>
</clipPath>
<clipPath id="clip8_662_2985">
<rect width="18" height="18" fill="white" transform="translate(34 355)"/>
</clipPath>
<clipPath id="clip9_662_2985">
<rect width="40" height="43" fill="white" transform="translate(22 392)"/>
</clipPath>
<clipPath id="clip10_662_2985">
<rect width="18" height="18" fill="white" transform="translate(34 411)"/>
</clipPath>
<clipPath id="clip11_662_2985">
<rect width="19" height="19" fill="white" transform="matrix(-1 0 0 1 49 672)"/>
</clipPath>
</defs>
</svg>
